<?xml version="1.0" encoding="UTF-8" standalone="no"?>
<svg
   xmlns:dc="http://purl.org/dc/elements/1.1/"
   xmlns:cc="http://creativecommons.org/ns#"
   xmlns:rdf="http://www.w3.org/1999/02/22-rdf-syntax-ns#"
   xmlns:svg="http://www.w3.org/2000/svg"
   xmlns="http://www.w3.org/2000/svg"
   xmlns:sodipodi="http://sodipodi.sourceforge.net/DTD/sodipodi-0.dtd"
   xmlns:inkscape="http://www.inkscape.org/namespaces/inkscape"
   id="svg2"
   height="500.00006"
   width="500"
   version="1.0"
   inkscape:version="1.0.2 (e86c870879, 2021-01-15, custom)"
   sodipodi:docname="party_nsdap.svg"
   inkscape:export-filename="C:\Users\tombr\OneDrive\Documents\Paradox Interactive\Hearts of Iron IV\mod\Totalsieg\gfx\interface\ideologies\party_nsdap.png"
   inkscape:export-xdpi="12.288"
   inkscape:export-ydpi="12.288">
  <sodipodi:namedview
     pagecolor="#ffffff"
     bordercolor="#666666"
     borderopacity="1"
     objecttolerance="10"
     gridtolerance="10"
     guidetolerance="10"
     inkscape:pageopacity="0"
     inkscape:pageshadow="2"
     inkscape:window-width="1920"
     inkscape:window-height="1017"
     id="namedview63"
     showgrid="false"
     inkscape:zoom="0.5"
     inkscape:cx="-21.62677"
     inkscape:cy="218.06724"
     inkscape:window-x="-8"
     inkscape:window-y="-8"
     inkscape:window-maximized="1"
     inkscape:current-layer="svg2"
     fit-margin-top="0"
     fit-margin-left="0"
     fit-margin-right="0"
     fit-margin-bottom="0"
     inkscape:document-rotation="0" />
  <metadata
     id="metadata7">
    <rdf:RDF>
      <cc:Work
         rdf:about="">
        <dc:format>image/svg+xml</dc:format>
        <dc:type
           rdf:resource="http://purl.org/dc/dcmitype/StillImage" />
        <dc:title />
      </cc:Work>
    </rdf:RDF>
  </metadata>
  <defs
     id="defs5" />
  <path
     id="path4572-6"
     d="M 247.77112,0.04576132 C 138.53805,-0.67463868 34.815306,79.356661 8.3783892,185.15386 c -25.3891762,93.0338 8.0997018,199.8964 84.5247508,259.2614 65.88416,53.3395 160.40654,70.8866 240.21823,41.2464 83.46643,-29.2098 149.37175,-104.9576 163.21462,-192.6998 14.28737,-81.23 -13.72293,-169.3179 -75.04218,-224.943399 C 375.01686,24.459161 311.66563,-1.1551387 247.77112,0.04006132 z"
     inkscape:connector-curvature="0"
     style="fill:#000000" />
  <text
     id="text3776"
     style="font-style:normal;font-variant:normal;font-weight:normal;font-stretch:normal;font-size:63.2068px;line-height:0%;font-family:'Bitstream Vera Serif';text-align:start;text-anchor:start;fill:#000000"
     font-weight="normal"
     xml:space="preserve"
     font-size="63.20679855px"
     font-style="normal"
     font-stretch="normal"
     font-variant="normal"
     y="-1918.7594"
     x="861.33893"
     line-height="100%"><tspan
       id="tspan3778"
       y="-1918.7594"
       x="861.33893" /></text>
  <text
     id="text3666"
     style="font-style:normal;font-variant:normal;font-weight:normal;font-stretch:normal;font-size:63.2068px;line-height:0%;font-family:'Bitstream Vera Serif';text-align:start;text-anchor:start;fill:#000000"
     font-weight="normal"
     xml:space="preserve"
     font-size="63.20679855px"
     font-style="normal"
     font-stretch="normal"
     font-variant="normal"
     y="-1385.4196"
     x="1415.0389"
     line-height="100%"><tspan
       id="tspan3668"
       y="-1385.4196"
       x="1415.0389" /></text>
  <text
     id="text4508"
     style="font-style:normal;font-variant:normal;font-weight:normal;font-stretch:normal;font-size:63.2068px;line-height:0%;font-family:'Bitstream Vera Serif';text-align:start;text-anchor:start;fill:#000000"
     font-weight="normal"
     xml:space="preserve"
     font-size="63.20679855px"
     font-style="normal"
     font-stretch="normal"
     font-variant="normal"
     y="-2113.5095"
     x="-1249.5211"
     line-height="100%"><tspan
       id="tspan4510"
       y="-2113.5095"
       x="-1249.5211" /></text>
  <text
     id="text4512"
     style="font-style:normal;font-variant:normal;font-weight:normal;font-stretch:normal;font-size:63.2068px;line-height:0%;font-family:'Bitstream Vera Serif';text-align:start;text-anchor:start;fill:#000000"
     font-weight="normal"
     xml:space="preserve"
     font-size="63.20679855px"
     font-style="normal"
     font-stretch="normal"
     font-variant="normal"
     y="-1580.1598"
     x="-695.81409"
     line-height="100%"><tspan
       id="tspan4514"
       y="-1580.1598"
       x="-695.81409" /></text>
  <text
     id="text5781"
     style="font-style:normal;font-variant:normal;font-weight:normal;font-stretch:normal;font-size:63.2068px;line-height:0%;font-family:'Bitstream Vera Serif';text-align:start;text-anchor:start;fill:#000000"
     font-weight="normal"
     xml:space="preserve"
     font-size="63.20679855px"
     font-style="normal"
     font-stretch="normal"
     font-variant="normal"
     y="-1907.0997"
     x="35.876877"
     line-height="100%"><tspan
       id="tspan5783"
       y="-1907.0997"
       x="35.876877" /></text>
  <text
     id="text5785"
     style="font-style:normal;font-variant:normal;font-weight:normal;font-stretch:normal;font-size:63.2068px;line-height:0%;font-family:'Bitstream Vera Serif';text-align:start;text-anchor:start;fill:#000000"
     font-weight="normal"
     xml:space="preserve"
     font-size="63.20679855px"
     font-style="normal"
     font-stretch="normal"
     font-variant="normal"
     y="-1373.7496"
     x="589.57782"
     line-height="100%"><tspan
       id="tspan5787"
       y="-1373.7496"
       x="589.57782" /></text>
  <g
     id="g7024"
     transform="matrix(1.2819951,0,0,1.2807407,-406.47328,-421.88294)">
    <path
       id="path4572"
       d="m 509.3,336.83 c -76.331,0.0501 -149.05,52.068 -173.96,124.03 -22.547,62.466 -9.6141,136.64 34.638,186.36 40.175,46.658 104.02,71.85 165.2,63.657 63.232,-7.802 121.42,-49.49 147.48,-107.91 26.165,-56.598 22.207,-126.62 -12.03,-178.99 -31.908,-50.446 -88.544,-84.408 -148.31,-86.875 -4.3362,-0.21396 -8.6791,-0.35347 -13.021,-0.27266 z"
       inkscape:connector-curvature="0"
       style="fill:#ffffff" />
    <g
       id="g6215"
       transform="translate(120.183,6.5898)">
      <g
         id="g4656"
         transform="matrix(1.05303,0,0,1.05303,-840.036,55.8997)">
        <path
           id="path12595"
           d="m 1169.9025,267.70001 c -94.3874,0 -170.9825,76.67099 -170.9825,171.14999 0,94.478 76.5981,171.15 170.9825,171.15 94.3874,0 170.9825,-76.671 170.9825,-171.15 0,-94.478 -76.5981,-171.14999 -170.9825,-171.14999 z"
           inkscape:connector-curvature="0"
           style="fill:#dd0000" />
        <path
           id="path4495"
           d="m 1169.9,319.56 c 65.781,-10e-6 119.18,53.454 119.18,119.3 0,65.845 -53.402,119.27 -119.18,119.27 -65.781,10e-6 -119.15,-53.422 -119.15,-119.27 -10e-5,-65.845 53.371,-119.3 119.15,-119.3 z"
           inkscape:connector-curvature="0"
           style="fill:#ffffff" />
      </g>
    </g>
  </g>
  <g
     id="g4521"
     transform="matrix(0.39859345,0,0,0.3985918,862.61543,311.52131)"
     style="fill:#ffffff">
    <g
       id="g4479">
      <path
         id="path4355"
         d="m -1875.3,276.74 c -9.5438,-7.805 -18.896,-15.892 -28.029,-24.261 5.4892,-29.149 12.652,-57.53 21.528,-84.844 l -55.021,51.8 c -7.2444,-7.704 -14.305,-15.609 -21.166,-23.714 l 84.07,-71.176 c 6.5753,7.7647 13.424,15.341 20.517,22.729 -9.2255,26.763 -16.746,54.613 -22.6,83.253 l 50.59,-56.176 c 6.5094,5.8624 13.17,11.587 19.966,17.173 z"
         inkscape:connector-curvature="0" />
      <path
         id="path4357"
         d="m -1942.7,59.773 c 7.0594,12.922 14.774,25.515 23.079,37.727 6.8444,-1.8365 13.647,-3.766 20.405,-5.7868 2.5038,3.5668 5.0607,7.0992 7.6687,10.596 2.8298,3.8006 5.7251,7.5602 8.6831,11.279 -13.419,4.6131 -27.032,8.8665 -40.835,12.739 -24.095,6.7628 -48.769,12.35 -73.93,16.674 -7.4424,-11.215 -14.48,-22.719 -21.083,-34.488 24.07,-32.162 50.393,-61.796 78.713,-88.484 3.6579,8.2192 7.5988,16.331 11.805,24.322 -4.8999,5.0556 -9.7357,10.197 -14.506,15.421 z m 2.0698,43.094 c -5.7581,-8.7513 -11.228,-17.687 -16.391,-26.792 -10.137,11.748 -19.958,23.879 -29.449,36.373 15.458,-2.7343 30.744,-5.9342 45.84,-9.5809 z"
         inkscape:connector-curvature="0" />
      <path
         id="path4359"
         d="m -2035.5,76.196 c -4.2316,-8.919 -8.2188,-17.968 -11.95,-27.139 -11.578,-28.526 -20.574,-58.045 -26.893,-88.129 l 21.018,-4.4148 c 2.8798,13.71 6.3395,27.298 10.369,40.717 l 84.964,-25.509 c 2.5725,8.5697 5.4269,17.052 8.5583,25.424 l -83.091,31.071 c 1.5987,4.2758 3.257,8.53 4.9744,12.761 3.5725,8.7865 7.3934,17.461 11.451,26.014 z"
         inkscape:connector-curvature="0" />
      <path
         id="path4361"
         d="m -2077.6,-56.293 c -1.0907,-6.234 -2.0671,-12.489 -2.9286,-18.76 -0.6832,-4.9909 -1.2943,-9.9884 -1.8337,-14.991 l 109.54,-11.831 c 0.4276,3.9517 0.9123,7.8944 1.4548,11.827 0.6778,4.9346 1.4464,9.8577 2.305,14.766 z"
         inkscape:connector-curvature="0" />
      <path
         id="path4363"
         d="m -2065.7,-182.24 c -0.6609,9.9516 2.2895,17.862 8.5642,23.404 6.2749,5.5422 15.284,8.2029 26.896,8.28 11.563,0.0767 20.541,-2.3819 27.045,-7.0744 6.5036,-4.6924 9.9109,-11.186 10.479,-19.768 0.3118,-4.7092 -0.2937,-8.9006 -1.8573,-12.642 -1.3031,-3.1177 -3.2698,-5.9217 -5.9184,-8.428 -5.8287,-5.5154 -14.405,-9.1313 -25.876,-10.571 -11.519,-1.4451 -20.796,0.009 -27.744,4.6669 -3.1575,2.1167 -5.6979,4.8056 -7.5962,8.0546 -2.2784,3.904 -3.6298,8.6173 -3.9925,14.078 z m -20.548,-1.3629 c 0.3494,-5.2557 1.0679,-10.2 2.1296,-14.81 v -1e-5 c 3.2158,-13.922 9.5264,-24.748 18.398,-32.217 5.9036,-4.9701 12.594,-8.1735 19.979,-9.7026 7.385,-1.5292 15.466,-1.3842 24.239,0.26737 8.7493,1.6471 16.304,4.4305 22.723,8.1942 6.4189,3.7637 11.702,8.5082 15.947,14.17 6.3798,8.5095 9.8248,18.315 10.669,29.756 0.2774,3.7795 0.2701,7.7415 -0.01,11.909 -0.553,8.3599 -2.0771,15.754 -4.7092,22.344 -2.6321,6.5899 -6.3711,12.376 -11.315,17.44 -4.9443,5.0396 -10.795,9.0479 -17.645,11.952 -6.8496,2.904 -14.698,4.704 -23.588,5.2257 -8.9142,0.52319 -16.95,-0.36117 -24.082,-2.8314 -7.1318,-2.4702 -13.36,-6.5268 -18.573,-12.248 -5.2141,-5.7496 -9.0988,-12.814 -11.513,-21.103 -2.414,-8.2892 -3.3558,-17.804 -2.6551,-28.346 z"
         inkscape:connector-curvature="0" />
      <path
         id="path4365"
         d="m -2070.5,-275.11 c 2.8561,-12.207 6.1056,-24.313 9.7372,-36.297 28.694,-7.818 57.413,-13.49 85.911,-17.092 l -70.347,-27.681 c 3.887,-9.8822 8.0393,-19.657 12.45,-29.312 l 100.26,45.786 c -4.2329,9.2734 -8.1756,18.678 -11.817,28.192 -28.134,3.0118 -56.503,8.08 -84.86,15.28 l 72.529,21.244 c -2.43,8.2821 -4.6328,16.624 -6.6017,25.012 z"
         inkscape:connector-curvature="0" />
      <path
         id="path4367"
         d="m -1903.4,-430.21 c -8.5882,12.057 -16.631,24.532 -24.115,37.353 4.5989,5.3963 9.2589,10.72 13.978,15.97 -1.1703,2.0701 -2.3258,4.1493 -3.4664,6.2373 -3.2494,5.9653 -6.3755,11.999 -9.3749,18.096 -14.081,-14.508 -27.68,-29.668 -40.754,-45.449 -12.153,-14.669 -23.857,-29.881 -35.066,-45.619 6.8577,-11.472 14.118,-22.723 21.776,-33.721 39.373,7.7309 77.54,18.377 114.07,31.915 -5.8129,6.974 -11.417,14.142 -16.81,21.485 -6.7023,-2.1778 -13.45,-4.2669 -20.24,-6.2671 z m -38.002,20.69 c 5.4197,-8.9898 11.11,-17.812 17.068,-26.444 -14.998,-3.9964 -30.188,-7.5712 -45.549,-10.723 9.1801,12.724 18.681,25.115 28.481,37.166 z"
         inkscape:connector-curvature="0" />
      <path
         id="path4369"
         d="m -1939.7,-529.1 c 7.5122,-8.4651 15.319,-16.713 23.419,-24.714 l 62.383,63.082 c 11.746,-11.625 24.12,-22.513 37.106,-32.501 l 13.107,17.014 c -19.235,14.774 -37.123,31.752 -53.606,50.299 z"
         inkscape:connector-curvature="0" />
    </g>
    <path
       id="path4371"
       d="m -1872.5,-539.48 35.991,-29.204 13.532,16.678 -35.991,29.204 z"
       inkscape:connector-curvature="0" />
    <g
       id="g4489">
      <path
         id="path4373"
         d="m -1742.7,-659.32 7.2724,22.171 c -7.3071,-0.45552 -14.287,-0.22169 -20.887,0.66987 -6.6,0.89182 -12.627,2.3986 -18.042,4.4771 -7.185,2.7582 -12.111,5.7632 -14.795,8.8814 -2.6843,3.1183 -3.2444,6.5053 -1.731,10.142 1.1349,2.7276 3.1353,4.3983 5.9872,5.0358 2.8834,0.57148 7.4824,0.20242 13.816,-1.0087 4.4331,-0.86345 8.8681,-1.6867 13.304,-2.4691 13.467,-2.3805 23.709,-1.8465 30.586,1.1775 6.8768,3.0241 11.64,9.0204 14.428,17.844 3.6628,11.592 2.8178,21.33 -2.2172,29.297 -5.0036,7.9054 -14.35,14.245 -28.169,19.607 -6.5192,2.5296 -13.275,4.5454 -20.316,6.067 -7.0414,1.5217 -14.336,2.5623 -21.926,3.1417 l -9.9494,-21.826 c 8.2596,0.35214 15.854,0.11986 22.844,-0.74908 7.0171,-0.93408 13.421,-2.5265 19.272,-4.8224 5.9452,-2.3329 10.15,-5.0103 12.629,-8.1314 2.4788,-3.1209 3.0919,-6.4777 1.7871,-10.09 -1.1712,-3.2416 -3.1922,-5.3415 -6.0835,-6.2738 -2.8426,-0.95003 -7.8595,-0.8927 -15.038,0.31176 -3.9337,0.65679 -7.8687,1.3464 -11.804,2.0684 -11.803,2.2443 -21.232,2.2782 -28.4,-0.18668 -7.1196,-2.4864 -12.553,-7.6404 -16.196,-15.605 -4.5636,-9.978 -4.479,-19.334 0.5664,-28.021 5.0454,-8.6863 14.767,-16.111 29.143,-21.737 6.5491,-2.5628 13.496,-4.6802 20.809,-6.3206 7.2961,-1.6864 15.013,-2.9157 23.113,-3.6495 v 10e-6 z"
         inkscape:connector-curvature="0" />
      <path
         id="path4375"
         d="m -1646.9,-668.33 c -9.7269,1.8128 -16.604,6.5546 -20.46,13.956 -3.8567,7.4013 -4.3385,16.773 -1.6911,28.072 2.6362,11.251 7.1611,19.393 13.368,24.561 6.2071,5.1684 13.515,6.8657 22.173,5.2518 8.707,-1.623 14.916,-5.8353 18.839,-12.885 3.9232,-7.0499 5.2268,-16.271 3.6579,-27.72 -1.5757,-11.498 -5.3879,-20.076 -11.659,-25.596 -6.2714,-5.52 -14.445,-7.4614 -24.227,-5.6385 z m -3.7697,-20.225 c 10.256,-1.9111 19.686,-2.1451 28.116,-0.80648 8.429,1.3387 15.856,4.2492 22.187,8.637 0.6039,0.41853 1.1945,0.84813 1.7718,1.2887 5.7704,4.4014 10.203,9.8953 13.348,16.396 3.1452,6.5009 5.0032,14.009 5.701,22.487 0.6958,8.4549 0.1,16.139 -1.6567,23.063 -1.7564,6.9238 -4.6734,13.088 -8.6835,18.546 -0.4022,0.54645 -0.8156,1.0859 -1.24,1.6183 -4.4498,5.5825 -9.8465,10.06 -16.251,13.531 -6.4042,3.4712 -13.817,5.936 -22.364,7.5293 -8.5233,1.5889 -16.352,1.9627 -23.623,1.0284 -7.2706,-0.93432 -13.982,-3.176 -20.197,-6.7953 -6.1907,-3.6256 -11.506,-8.4116 -15.899,-14.439 -4.3936,-6.0276 -7.8666,-13.297 -10.304,-21.862 -2.4444,-8.5888 -3.3163,-16.626 -2.4887,-24.119 0.8277,-7.493 3.3548,-14.443 7.6614,-20.787 4.334,-6.3513 10.183,-11.715 17.523,-15.98 7.3398,-4.265 16.171,-7.4313 26.398,-9.3373 z"
         inkscape:connector-curvature="0" />
      <path
         id="path4377"
         d="m -1565.2,-696.87 c 36.589,-1.9016 73.476,-0.52106 110.06,4.3913 l -2.2802,17.036 c -25.808,20.578 -48.839,42.956 -69.156,66.543 20.575,0.2646 41.089,1.7527 61.372,4.5349 l -2.9233,21.266 c -30.598,-4.1909 -61.832,-5.2948 -93.029,-3.5896 l -0.9447,-17.178 c 18.544,-24.901 39.804,-48.851 63.844,-71.259 -21.942,-1.3465 -43.933,-1.4219 -65.831,-0.2856 z"
         inkscape:connector-curvature="0" />
      <path
         id="path4379"
         d="m -1428.7,-688.32 c 11.166,2.0328 22.291,4.4037 33.355,7.1198 l -26.425,106.96 c -8.8113,-2.1941 -17.708,-4.1055 -26.673,-5.7413 z"
         inkscape:connector-curvature="0" />
      <path
         id="path4381"
         d="m -1327.7,-561.37 c -13.343,-6.5014 -27.018,-12.341 -40.951,-17.495 -4.5205,5.463 -8.9496,10.979 -13.286,16.547 -8.6065,-3.0319 -17.31,-5.7916 -26.09,-8.2724 22.528,-31.804 48.112,-62.136 76.547,-90.574 12.69,4.8651 25.199,10.211 37.492,16.025 -0.887,40.209 -5.1215,79.658 -12.617,117.89 -7.8299,-4.6273 -15.818,-9.0027 -23.944,-13.119 1.0512,-6.9679 2.0012,-13.968 2.8495,-20.998 z m -26.91,-34.037 c 9.8356,3.8157 19.542,7.9613 29.096,12.429 1.4256,-15.465 2.3672,-31.059 2.8198,-46.758 -11.058,11.166 -21.7,22.616 -31.916,34.328 z"
         inkscape:connector-curvature="0" />
      <path
         id="path4383"
         d="m -1235.7,-612.93 c 6.3727,4.0559 12.662,8.2503 18.863,12.581 3.1803,2.2252 6.3351,4.485 9.464,6.7787 l -52.437,71.552 c 13.464,9.8653 26.372,20.511 38.644,31.853 l -14.576,15.772 c -13.935,-12.88 -28.726,-24.813 -44.243,-35.656 -4.8859,-3.4219 -9.8504,-6.7384 -14.888,-9.9474 z"
         inkscape:connector-curvature="0" />
      <path
         id="path4385"
         d="m -1145.3,-540.32 c 8.0632,8.0804 15.866,16.419 23.395,25 l -82.829,72.672 c -5.9753,-6.8104 -12.17,-13.43 -18.568,-19.844 z"
         inkscape:connector-curvature="0" />
      <path
         id="path4387"
         d="m -1053.8,-409.97 -20.646,10.847 c -0.8254,-7.389 -2.3363,-14.351 -4.4762,-20.814 -2.14,-6.4631 -4.8298,-12.242 -7.9924,-17.284 -4.1966,-6.6909 -8.228,-11.041 -11.881,-13.108 -3.6532,-2.0672 -7.1065,-1.9381 -10.343,0.3016 -2.4277,1.6798 -3.6278,4.002 -3.6432,6.9511 0.056,2.967 1.3929,7.4338 3.8588,13.459 1.7414,4.2142 3.4191,8.4426 5.0332,12.683 2.4528,6.4374 3.98,12.226 4.6691,17.306 0.6891,5.0791 0.5404,9.4486 -0.3776,13.089 -1.8364,7.2814 -7.0075,12.924 -15.265,17.093 -5.4243,2.7386 -10.574,4.2969 -15.425,4.756 -4.8512,0.45903 -9.4045,-0.18133 -13.689,-1.8755 -4.2515,-1.6848 -8.289,-4.4499 -12.194,-8.2747 -3.9053,-3.8248 -7.6781,-8.71 -11.457,-14.657 -3.2609,-5.1319 -6.173,-10.505 -8.7775,-16.173 -0.2433,-0.5299 -0.484,-1.0624 -0.722,-1.5976 -2.7838,-6.259 -5.2149,-12.848 -7.347,-19.83 l 18.925,-14.737 c 1.4741,7.9791 3.2672,15.164 5.4924,21.636 0.2963,0.8374 0.6,1.6627 0.9115,2.4761 2.1014,5.4847 4.5566,10.43 7.428,14.888 3.3505,5.2016 6.6878,8.7016 10.164,10.482 3.4764,1.7799 6.8651,1.7456 10.178,-0.19087 2.9733,-1.738 4.6825,-4.088 5.0824,-7.0731 0.426,-2.941 -0.5262,-7.8167 -3.0688,-14.562 -1.39,-3.6967 -2.8313,-7.3846 -4.3241,-11.062 -1.1745,-2.8402 -2.1861,-5.5532 -3.027,-8.1469 v -10e-6 c -2.4194,-7.4635 -3.4231,-13.948 -2.8464,-19.548 0.8093,-7.5031 4.5253,-14.015 11.424,-19.411 4.3212,-3.38 8.7663,-5.5785 13.368,-6.5238 4.6012,-0.94529 9.3587,-0.63737 14.244,0.98343 4.9786,1.6516 9.9212,4.6225 14.735,8.9388 4.6327,4.1549 9.1435,9.5536 13.4,16.189 3.953,6.163 7.4978,12.833 10.579,19.967 3.1235,7.1088 5.8145,14.734 8.0092,22.825 z"
         inkscape:connector-curvature="0" />
      <path
         id="path4389"
         d="m -1040.4,-390.98 c 13.565,28.739 24.581,58.676 32.865,89.401 2.3381,8.6869 4.4552,17.428 6.3507,26.212 l -20.992,4.5311 c -1.8197,-8.4316 -3.8519,-16.82 -6.0963,-25.155 -1.4211,-5.2724 -2.9264,-10.521 -4.5148,-15.744 l -84.873,25.811 c -2.636,-8.6689 -5.5518,-17.258 -8.7387,-25.748 l 83.054,-31.174 c -4.9575,-13.209 -10.456,-26.212 -16.477,-38.969 z"
         inkscape:connector-curvature="0" />
      <path
         id="path4391"
         d="m -997.78,-258.1 c 2.0396,11.223 3.7217,22.505 5.0452,33.827 l -109.44,12.784 c -1.0521,-9.0142 -2.3888,-17.992 -4.0095,-26.913 z"
         inkscape:connector-curvature="0" />
      <path
         id="path4393"
         d="m -996.2,-99.015 -23.158,-2.7142 c 2.3478,-4.4056 4.3333,-8.8282 5.9574,-13.241 0.792,-2.1558 1.4975,-4.3085 2.1169,-6.4551 1.8868,-6.5397 2.9339,-12.823 3.176,-18.765 0.321,-7.8848 -0.5431,-13.744 -2.3857,-17.511 -1.8428,-3.7666 -4.7628,-5.6124 -8.6989,-5.5981 -2.9523,0.0107 -5.256,1.2446 -6.9375,3.6655 -1.6327,2.4762 -3.0578,6.9128 -4.4311,13.274 -0.9468,4.4587 -1.9533,8.8939 -3.0187,13.304 -1.4846,6.1544 -3.3042,11.416 -5.3755,15.783 -2.4365,5.1351 -5.2186,9.0306 -8.26,11.716 -5.628,4.9694 -13.08,6.7051 -22.246,5.4818 -6.0213,-0.80372 -11.149,-2.4265 -15.411,-4.7893 -4.2617,-2.3628 -7.6572,-5.4658 -10.238,-9.2863 -1.6925,-2.51 -3.042,-5.3582 -4.0708,-8.5497 -2.0729,-6.4583 -2.8186,-14.32 -2.4888,-23.764 0.2325,-6.6575 0.975,-13.322 2.2237,-20.079 1.2486,-6.7571 2.979,-13.583 5.1816,-20.558 l 23.945,-1.4073 c -3.3102,7.416 -5.9039,14.363 -7.734,20.97 -1.7803,6.6556 -2.7746,12.972 -2.9504,19.067 -0.1786,6.1928 0.5961,10.971 2.4581,14.406 1.8619,3.4354 4.6771,5.3227 8.5051,5.5975 3.4353,0.24646 6.1735,-0.72681 8.1906,-2.9641 2.0137,-2.1862 3.9836,-6.7481 5.7007,-13.752 0.9438,-3.8366 1.8411,-7.6947 2.691,-11.573 2.4762,-11.662 5.9256,-20.382 10.843,-26.157 4.9196,-5.7224 11.674,-8.9769 20.416,-9.5093 5.4759,-0.33353 10.384,0.3755 14.71,2.2027 4.326,1.8272 8.0703,4.7726 11.177,8.8683 3.1069,4.0956 5.466,9.2143 6.994,15.327 1.528,6.1124 2.2243,13.219 1.9782,21.239 -0.22436,7.307 -1.0702,14.805 -2.5594,22.427 -0.58162,3.0791 -1.2688,6.1884 -2.0634,9.3229 -1.1785,4.6288 -2.5896,9.3086 -4.2376,14.023 z"
         inkscape:connector-curvature="0" />
      <path
         id="path4395"
         d="m -1124.5,2.2853 c -0.6693,-5.7482 -0.7483,-11.404 -0.2359,-17.024 0.5124,-5.6201 1.6474,-11.219 3.4014,-16.867 2.6171,-8.4278 5.9458,-15.671 10.161,-21.859 4.215,-6.1874 9.3154,-11.32 15.421,-15.46 6.1294,-4.1346 12.825,-6.9781 20.17,-8.4299 7.3448,-1.4518 15.339,-1.5122 23.986,0.0043 8.6716,1.5207 16.19,4.318 22.484,8.5638 6.2943,4.2458 11.365,9.9406 15.073,17.138 3.7324,7.2024 5.8372,15.388 6.1964,24.431 0.3591,9.0424 -1.0288,18.941 -4.2841,29.46 -2.1819,7.0501 -5.0693,13.568 -8.605,19.491 -3.5358,5.9234 -7.7064,11.289 -12.462,16.051 l -21.261,-8.2663 c 5.5131,-4.2656 10.053,-8.945 13.588,-13.945 3.5352,-5.0004 6.3148,-10.656 8.281,-16.901 3.5219,-11.185 2.8407,-21.026 -1.7776,-29.054 -2.3093,-4.0144 -5.4646,-7.332 -9.4256,-9.9705 -3.9609,-2.6385 -8.7277,-4.5981 -14.275,-5.9363 -11.047,-2.6651 -20.426,-1.7482 -28.211,2.3644 -7.7858,4.1125 -13.011,10.897 -16.076,20.609 -1.7106,5.4215 -2.6376,10.809 -2.7792,16.243 -0.1416,5.4335 0.5028,11.281 1.8912,17.624 z"
         inkscape:connector-curvature="0" />
      <path
         id="path4397"
         d="m -1038.3,66.045 c -2.2153,4.9688 -4.4997,9.9052 -6.8522,14.807 -2.5371,5.2711 -5.1464,10.499 -7.8258,15.684 l -37.311,-19.229 c -7.0842,13.736 -14.721,27.167 -22.862,40.278 l 35.651,22.142 c -5.9024,9.5137 -12.043,18.859 -18.405,28.032 l -90.465,-62.871 c 5.3194,-7.6372 10.433,-15.392 15.327,-23.26 l 39.661,24.633 c 7.8504,-12.637 15.204,-25.572 22.013,-38.788 l -41.508,-21.392 c 2.1821,-4.2474 4.2986,-8.5234 6.3475,-12.827 1.9062,-3.989 3.7577,-8.0036 5.5537,-12.042 z"
         inkscape:connector-curvature="0" />
      <path
         id="path4399"
         d="m -1115.3,194.27 c -18.31,23.825 -38.13,46.356 -59.157,67.501 l -15.253,-15.121 c 12.849,-12.936 25.229,-26.39 37.065,-40.339 l -15.653,-13.285 c -10.8,12.726 -22.073,25.04 -33.756,36.923 l -15.322,-15.054 c 11.321,-11.528 22.24,-23.459 32.694,-35.775 l -19.256,-16.344 c -11.044,13.008 -22.638,25.59 -34.698,37.721 l -15.214,-15.159 c 18.301,-18.437 35.477,-37.904 51.208,-58.3 z"
         inkscape:connector-curvature="0" />
    </g>
    <path
       id="path4401"
       d="m -1817.4,240.29 39.184,24.756 -11.471,18.157 -39.184,-24.756 z"
       inkscape:connector-curvature="0" />
    <g
       id="g4505"
       transform="translate(-1434.42,1402.09)">
      <path
         id="path4403"
         d="m -277.8,-1127.5 -21.522,63.665 c 3.526,1.1938 7.0608,2.3425 10.603,3.4478 6.0579,1.89 11.628,2.7426 16.633,2.6236 5.0056,-0.119 9.4478,-1.2095 13.299,-3.2192 7.7528,-4.0067 12.71,-11.492 15.157,-22.194 2.4364,-10.654 1.3058,-19.421 -3.0268,-26.376 -4.3327,-6.9551 -11.67,-11.786 -22.094,-15.018 -3.0348,-0.9411 -6.0519,-1.9166 -9.0499,-2.9282 z m -16.252,-29.125 c 7.9243,3.3856 16.076,6.446 24.42,9.2213 6.9874,2.3241 13.119,4.4434 18.331,6.5108 5.2127,2.0675 9.5074,4.0814 12.836,6.1301 6.7121,4.0603 12.203,9.3693 16.494,16.062 3.4577,5.3159 5.91,11.02 7.2738,17.152 0.13438,0.6046 0.25817,1.2134 0.37128,1.8264 1.2595,6.8268 1.2529,14.287 -0.15021,22.382 -1.4202,8.1926 -3.9491,15.299 -7.7099,21.272 -0.33692,0.5319 -0.68451,1.0556 -1.0428,1.5709 -3.6308,5.2264 -8.3678,9.6014 -14.27,13.036 -7.4164,4.3394 -15.96,6.6706 -25.524,6.8135 -4.7764,0.047 -10.637,-0.5313 -17.565,-1.8605 -6.9273,-1.3292 -14.922,-3.4081 -23.922,-6.4211 -10.875,-3.6407 -21.702,-7.6946 -32.448,-12.202 z"
         inkscape:connector-curvature="0" />
      <path
         id="path4405"
         d="m -194.61,-1047.4 c 9.2906,1.2368 18.598,2.2701 27.914,3.1094 l -2.5572,28.448 c -9.7091,-0.8766 -19.42,-1.9564 -29.124,-3.2487 z"
         inkscape:connector-curvature="0" />
      <path
         id="path4407"
         d="m -64.999,-1033.8 c -13.866,0.6587 -27.743,0.9428 -41.609,0.8574 -1.8632,-0.01 -3.727,-0.026 -5.5912,-0.049 -2.5723,6.6604 -5.2111,13.308 -7.9177,19.942 -10.405,-0.2335 -20.828,-0.6834 -31.26,-1.3613 17.278,-35.689 32.282,-71.999 45.255,-108.64 0.005,0 0.011,10e-5 0.0164,10e-5 10.613,0.048 21.226,-0.1424 31.825,-0.5746 14.259,36.194 30.543,71.964 48.872,107.1 -10.347,1.0045 -20.709,1.8016 -31.077,2.3931 -2.9009,-6.5401 -5.7385,-13.096 -8.5129,-19.666 z m -39.604,-19.577 c 10.408,0.035 20.821,-0.1432 31.227,-0.5362 -5.7439,-14.412 -11.189,-28.888 -16.336,-43.416 -4.6638,14.702 -9.6286,29.356 -14.891,43.952 z"
         inkscape:connector-curvature="0" />
      <path
         id="path4409"
         d="m -8.2511,-1047.2 c 9.2494,-1.1472 18.479,-2.4676 27.682,-3.9629 l 4.5753,28.198 c -9.5587,1.5553 -19.143,2.9284 -28.745,4.1209 z"
         inkscape:connector-curvature="0" />
      <path
         id="path4411"
         d="m 33.446,-1136.7 c 14.39,-2.9586 28.657,-6.4073 42.762,-10.355 12.582,-3.5211 22.988,-3.6001 31.663,0.089 4.3517,1.814 8.1144,4.4943 11.278,8.0807 3.164,3.5864 5.7292,8.079 7.645,13.508 3.8478,10.904 3.2814,20.584 -2.0707,28.954 -5.32,8.3072 -15.089,14.713 -29.128,18.642 -6.2562,1.7509 -12.536,3.4138 -18.837,4.9892 l 9.2682,37.079 c -10.07,2.5195 -20.186,4.8269 -30.34,6.9241 z m 30.86,14.088 7.4611,29.849 c 5.1289,-1.282 10.243,-2.6236 15.339,-4.0251 5.3601,-1.4739 9.1228,-3.9538 11.256,-7.3545 2.1187,-3.4477 2.4335,-7.5321 1.0065,-12.239 -1.4272,-4.7071 -3.9322,-7.9001 -7.4722,-9.6227 -3.5401,-1.7225 -7.8318,-1.8548 -12.947,-0.4484 -4.8642,1.3374 -9.7458,2.6176 -14.643,3.841 z"
         inkscape:connector-curvature="0" />
    </g>
    <path
       id="path4517"
       d="m -1246.5,239.7 -39.184,24.756 11.471,18.157 39.184,-24.756 z"
       inkscape:connector-curvature="0" />
  </g>
  <path
     id="path4495-5"
     d="m 247.99719,98.437161 c -68.73958,-0.4746 -133.18659,52.499199 -146.35215,120.155099 -12.191898,56.5788 10.82808,119.3297 57.95525,153.2808 46.92399,35.2253 114.99047,39.9743 165.64187,9.7852 47.94563,-27.5016 79.38139,-82.2036 76.12175,-137.8997 -2.09957,-56.3325 -38.00443,-110.2634 -90.1904,-132.3894 -19.83229,-8.8264 -41.39177,-13.303199 -63.17632,-12.925699 z"
     inkscape:connector-curvature="0"
     style="fill:#000000" />
  <path
     id="path4495-5-8"
     d="m 243.03777,103.16596 c -72.16179,1.8656 -137.13605,65.5886 -139.62969,137.8897 -4.08425,62.1605 34.90674,125.1702 93.87112,146.2298 52.64787,20.4066 117.50127,7.9056 156.58222,-33.4613 38.71144,-38.4738 54.12029,-100.6181 34.57145,-152.2578 -18.40193,-53.9818 -70.70893,-95.121 -127.98574,-98.1176 -5.79104,-0.4491 -11.60414,-0.345 -17.40656,-0.2832 z"
     inkscape:connector-curvature="0"
     style="fill:#ffffff" />
  <path
     style="color:#000000;fill:#ff0000;fill-opacity:1;fill-rule:evenodd;stroke:#000000;stroke-width:23.75585556;stroke-miterlimit:4;stroke-opacity:1;stroke-dasharray:none;marker:none;visibility:visible;display:inline;overflow:visible;enable-background:accumulate"
     d="m 122.26378,250.00476 52.89278,52.8928 18.97403,18.974 2.98735,2.9874 52.89284,-52.8928 30.93135,30.9314 -52.89277,52.8928 21.96135,21.9614 52.89284,-52.8928 18.97402,-18.974 2.98734,-2.9874 -52.89278,-52.8928 30.93135,-30.9314 52.89284,52.8928 21.96136,-21.9614 -52.89277,-52.8928 -18.97402,-18.974 -2.98734,-2.9873 -52.89284,52.8928 -30.93142,-30.9314 52.89284,-52.8929 -21.96142,-21.9613 -52.89277,52.8928 -21.96136,21.9613 52.89278,52.8928 -30.93144,30.9315 -52.89278,-52.8928 -21.96136,21.9613 z"
     id="rect3103-1"
     inkscape:connector-curvature="0" />
  <path
     style="color:#000000;fill:#ffffff;fill-opacity:1;fill-rule:evenodd;stroke:#ffffff;stroke-width:14.51151657;stroke-miterlimit:4;stroke-opacity:1;stroke-dasharray:none;marker:none;visibility:visible;display:inline;overflow:visible;enable-background:accumulate"
     d="m 122.26377,250.00476 52.89278,52.8928 18.97403,18.974 2.98736,2.9874 52.89277,-52.8928 30.93142,30.9314 -52.89277,52.8928 21.96135,21.9614 52.89284,-52.8928 18.97402,-18.974 2.98734,-2.9874 -52.89278,-52.8928 30.93135,-30.9314 52.89277,52.8928 21.96143,-21.9614 -52.89277,-52.8928 -18.97402,-18.974 -2.98734,-2.9873 -52.89284,52.8928 -30.93142,-30.9314 52.89284,-52.8929 -21.96142,-21.9613 -52.89278,52.8928 -21.96135,21.9613 52.89278,52.8928 -30.93145,30.9315 -52.89278,-52.8928 -21.96136,21.9613 z"
     id="rect3103-6"
     inkscape:connector-curvature="0" />
  <path
     style="color:#000000;fill:#000000;fill-opacity:1;fill-rule:evenodd;stroke:none;stroke-width:8;marker:none;visibility:visible;display:inline;overflow:visible;enable-background:accumulate"
     d="m 122.26377,250.00476 52.89278,52.8928 18.97403,18.974 2.98736,2.9874 52.89277,-52.8928 30.93142,30.9314 -52.89277,52.8928 21.96135,21.9614 52.89284,-52.8928 18.97402,-18.974 2.98734,-2.9874 -52.89278,-52.8928 30.93135,-30.9314 52.89277,52.8928 21.96143,-21.9614 -52.89277,-52.8928 -18.97402,-18.974 -2.98734,-2.9873 -52.89284,52.8928 -30.93142,-30.9314 52.89284,-52.8929 -21.96142,-21.9613 -52.89278,52.8928 -21.96135,21.9613 52.89278,52.8928 -30.93145,30.9315 -52.89278,-52.8928 -21.96136,21.9613 z"
     id="rect3103"
     inkscape:connector-curvature="0" />
</svg>
