<?xml version="1.0" encoding="UTF-8" standalone="no"?>
<svg
   xmlns:dc="http://purl.org/dc/elements/1.1/"
   xmlns:cc="http://creativecommons.org/ns#"
   xmlns:rdf="http://www.w3.org/1999/02/22-rdf-syntax-ns#"
   xmlns:svg="http://www.w3.org/2000/svg"
   xmlns="http://www.w3.org/2000/svg"
   xmlns:sodipodi="http://sodipodi.sourceforge.net/DTD/sodipodi-0.dtd"
   xmlns:inkscape="http://www.inkscape.org/namespaces/inkscape"
   id="svg2"
   height="500.00006"
   width="500"
   version="1.0"
   inkscape:version="1.0.2 (e86c870879, 2021-01-15, custom)"
   sodipodi:docname="party_nsdap_palestine.svg"
   inkscape:export-filename="C:\Users\tombr\OneDrive\Pictures\NSDAP-Logo.png"
   inkscape:export-xdpi="12.288"
   inkscape:export-ydpi="12.288">
  <sodipodi:namedview
     pagecolor="#ffffff"
     bordercolor="#666666"
     borderopacity="1"
     objecttolerance="10"
     gridtolerance="10"
     guidetolerance="10"
     inkscape:pageopacity="0"
     inkscape:pageshadow="2"
     inkscape:window-width="1920"
     inkscape:window-height="1017"
     id="namedview63"
     showgrid="false"
     inkscape:zoom="0.5"
     inkscape:cx="-57.17696"
     inkscape:cy="239.13556"
     inkscape:window-x="-8"
     inkscape:window-y="-8"
     inkscape:window-maximized="1"
     inkscape:current-layer="layer1"
     fit-margin-top="0"
     fit-margin-left="0"
     fit-margin-right="0"
     fit-margin-bottom="0"
     inkscape:document-rotation="0" />
  <metadata
     id="metadata7">
    <rdf:RDF>
      <cc:Work
         rdf:about="">
        <dc:format>image/svg+xml</dc:format>
        <dc:type
           rdf:resource="http://purl.org/dc/dcmitype/StillImage" />
        <dc:title></dc:title>
      </cc:Work>
    </rdf:RDF>
  </metadata>
  <defs
     id="defs5" />
  <path
     id="path4572-6"
     d="M 247.77112,0.04576132 C 138.53805,-0.67463868 34.815306,79.356661 8.3783892,185.15386 c -25.3891762,93.0338 8.0997018,199.8964 84.5247508,259.2614 65.88416,53.3395 160.40654,70.8866 240.21823,41.2464 83.46643,-29.2098 149.37175,-104.9576 163.21462,-192.6998 14.28737,-81.23 -13.72293,-169.3179 -75.04218,-224.943399 C 375.01686,24.459161 311.66563,-1.1551387 247.77112,0.04006132 z"
     inkscape:connector-curvature="0"
     style="fill:#000000" />
  <text
     id="text3776"
     style="font-style:normal;font-variant:normal;font-weight:normal;font-stretch:normal;font-size:63.2068px;line-height:0%;font-family:'Bitstream Vera Serif';text-align:start;text-anchor:start;fill:#000000"
     font-weight="normal"
     xml:space="preserve"
     font-size="63.20679855px"
     font-style="normal"
     font-stretch="normal"
     font-variant="normal"
     y="-1918.7594"
     x="861.33893"
     line-height="100%"><tspan
       id="tspan3778"
       y="-1918.7594"
       x="861.33893" /></text>
  <text
     id="text3666"
     style="font-style:normal;font-variant:normal;font-weight:normal;font-stretch:normal;font-size:63.2068px;line-height:0%;font-family:'Bitstream Vera Serif';text-align:start;text-anchor:start;fill:#000000"
     font-weight="normal"
     xml:space="preserve"
     font-size="63.20679855px"
     font-style="normal"
     font-stretch="normal"
     font-variant="normal"
     y="-1385.4196"
     x="1415.0389"
     line-height="100%"><tspan
       id="tspan3668"
       y="-1385.4196"
       x="1415.0389" /></text>
  <text
     id="text4508"
     style="font-style:normal;font-variant:normal;font-weight:normal;font-stretch:normal;font-size:63.2068px;line-height:0%;font-family:'Bitstream Vera Serif';text-align:start;text-anchor:start;fill:#000000"
     font-weight="normal"
     xml:space="preserve"
     font-size="63.20679855px"
     font-style="normal"
     font-stretch="normal"
     font-variant="normal"
     y="-2113.5095"
     x="-1249.5211"
     line-height="100%"><tspan
       id="tspan4510"
       y="-2113.5095"
       x="-1249.5211" /></text>
  <text
     id="text4512"
     style="font-style:normal;font-variant:normal;font-weight:normal;font-stretch:normal;font-size:63.2068px;line-height:0%;font-family:'Bitstream Vera Serif';text-align:start;text-anchor:start;fill:#000000"
     font-weight="normal"
     xml:space="preserve"
     font-size="63.20679855px"
     font-style="normal"
     font-stretch="normal"
     font-variant="normal"
     y="-1580.1598"
     x="-695.81409"
     line-height="100%"><tspan
       id="tspan4514"
       y="-1580.1598"
       x="-695.81409" /></text>
  <text
     id="text5781"
     style="font-style:normal;font-variant:normal;font-weight:normal;font-stretch:normal;font-size:63.2068px;line-height:0%;font-family:'Bitstream Vera Serif';text-align:start;text-anchor:start;fill:#000000"
     font-weight="normal"
     xml:space="preserve"
     font-size="63.20679855px"
     font-style="normal"
     font-stretch="normal"
     font-variant="normal"
     y="-1907.0997"
     x="35.876877"
     line-height="100%"><tspan
       id="tspan5783"
       y="-1907.0997"
       x="35.876877" /></text>
  <text
     id="text5785"
     style="font-style:normal;font-variant:normal;font-weight:normal;font-stretch:normal;font-size:63.2068px;line-height:0%;font-family:'Bitstream Vera Serif';text-align:start;text-anchor:start;fill:#000000"
     font-weight="normal"
     xml:space="preserve"
     font-size="63.20679855px"
     font-style="normal"
     font-stretch="normal"
     font-variant="normal"
     y="-1373.7496"
     x="589.57782"
     line-height="100%"><tspan
       id="tspan5787"
       y="-1373.7496"
       x="589.57782" /></text>
  <path
     id="path4572"
     d="M 246.44682,9.50895 C 148.59086,9.5731151 55.365455,76.194557 23.430957,168.35922 -5.4741867,248.36197 11.105728,343.35963 67.836703,407.03806 119.34086,466.79486 201.18983,499.05928 279.62229,488.56617 360.68541,478.57383 435.28214,425.18231 468.69093,350.36144 502.23433,277.87408 497.1602,188.19405 453.26853,121.12166 412.36263,56.513414 339.75556,13.016899 263.13584,9.8573115 257.57685,9.5832842 252.00927,9.404608 246.44298,9.5081047 Z"
     inkscape:connector-curvature="0"
     style="fill:#ffffff;stroke-width:1.28137" />
  <g
     id="g4656"
     transform="matrix(1.3499793,0,0,1.3486584,-1329.3213,-341.85009)">
    <path
       id="path12595"
       d="m 1169.9025,267.70001 c -94.3874,0 -170.9825,76.67099 -170.9825,171.14999 0,94.478 76.5981,171.15 170.9825,171.15 94.3874,0 170.9825,-76.671 170.9825,-171.15 0,-94.478 -76.5981,-171.14999 -170.9825,-171.14999 z"
       inkscape:connector-curvature="0"
       style="fill:#dd0000" />
    <path
       id="path4495"
       d="m 1169.9,319.56 c 65.781,-10e-6 119.18,53.454 119.18,119.3 0,65.845 -53.402,119.27 -119.18,119.27 -65.781,10e-6 -119.15,-53.422 -119.15,-119.27 -10e-5,-65.845 53.371,-119.3 119.15,-119.3 z"
       inkscape:connector-curvature="0"
       style="fill:#ffffff" />
  </g>
  <path
     style="opacity:1;fill:#000000;stroke:#ffffff;stroke-width:10;stroke-linecap:butt;stroke-linejoin:miter;stroke-miterlimit:4;stroke-dasharray:none;stroke-opacity:1"
     d="m 247.96979,459.45839 c 0,0 13.08147,-0.53033 15.02601,-15.55635 1.94455,-15.02602 -1.59099,-20.15254 0.17678,-22.27386 1.76777,-2.12132 15.2028,-46.3155 16.44023,-53.20979 1.23744,-6.89429 20.68288,-6.36396 22.62742,-51.97235 1.94454,-45.60838 12.02082,-35.17856 13.43503,-54.44722 1.41421,-19.26866 7.24784,-18.91511 6.36396,-25.45584 -0.88388,-6.54074 -5.3033,-38.89088 -4.59619,-51.26524 0.7071,-12.37437 7.42462,-16.44024 7.24784,-18.208 -0.17678,-1.76777 -2.82843,-24.74874 9.19239,-37.47666 12.02081,-12.72793 -5.3033,-25.98618 21.56676,-37.47666 26.87005,-11.490489 1.41421,-24.21841 -3.35876,-34.294681 -4.77297,-10.076272 -31.64303,-13.081476 -34.47146,-14.318913 -2.82842,-1.237437 -14.27414,16.055195 -16.39914,15.867695 -2.125,-0.1875 -12.125,2.3125 -14.625,4.875 -2.5,2.5625 -8.125,18.25 -16.0625,22.4375 -7.9375,4.187499 -7,13.749999 -7.8125,15.687499 -0.8125,1.9375 -6.75,19.0625 -7.75,23.875 -1,4.8125 -15.3125,5.25 -20.4375,16.5625 -5.125,11.3125 -0.3125,13.25 -12.5625,23.125 -12.25,9.875 -4.125,9.4375 -20.5625,11.375 -16.4375,1.9375 -19.81802,13.80335 -19.37608,19.63698 0.44194,5.83363 1.85615,4.33103 2.03293,5.83363 0.17678,1.5026 0.97227,-0.17678 -0.53033,3.44714 -1.5026,3.62393 -1.14905,3.53554 -1.67938,6.01041 -0.53033,2.47488 -1.32582,5.12653 -1.23744,5.83363 0.0884,0.70711 0.17678,1.23744 0.26517,3.35876 0.0884,2.12132 0.35355,5.65685 -0.0884,7.86656 -0.44194,2.20971 -0.35355,6.71752 -1.59099,8.66206 -1.23744,1.94454 -2.65165,4.94975 -4.06586,7.42462 -1.41422,2.47488 -1.5026,1.41422 -4.33103,5.48008 -2.82843,4.06586 -3.27037,4.41942 -4.50781,7.86656 -1.23743,3.44715 -1.76776,3.44715 -3.71231,7.51301 -1.94454,4.06587 -2.74004,4.24264 -4.06586,7.6014 -1.32583,3.35876 -2.12132,9.36916 -2.56326,12.81631 -0.44195,3.44715 -1.06066,6.45235 -2.47488,11.22532 -1.41421,4.77297 -2.03293,5.65685 -2.20971,9.19239 -0.17677,3.53553 -1.32582,0.79549 1.14905,7.07107 2.47488,6.27557 2.03293,7.86656 3.88909,9.45755 1.85615,1.59099 1.14905,0.61872 2.56326,3.27037 1.41421,2.65165 0.17678,3.88909 3.09359,4.68458 2.91682,0.7955 1.67938,-1.23744 4.68459,1.23744 3.0052,2.47487 3.53553,2.65165 4.24264,4.77297 0.7071,2.12132 1.76776,5.65685 2.03293,7.42462 0.26516,1.76777 0.26516,3.62392 1.41421,6.36396 1.14905,2.74004 1.5026,2.91682 2.56326,6.36396 1.06066,3.44715 -0.26516,3.09359 3.00521,7.95495 3.27037,4.86136 3.27037,6.18719 5.48008,8.22012 2.2097,2.03293 3.44714,5.03814 6.27557,7.6014 2.82843,2.56326 7.15945,7.33623 7.42462,8.04334 0.26516,0.7071 1.41421,12.19759 1.5026,14.4073 0.0884,2.20971 -1.76777,6.09879 0.17678,8.3085 1.94454,2.20971 -1.5026,1.14905 5.21491,7.15946 6.71752,6.01041 14.84924,13.70019 17.14734,16.52862 2.2981,2.82843 6.27557,10.69499 8.57367,12.9047 2.2981,2.20971 3.35876,5.12652 7.24784,7.33623 3.88909,2.20971 9.01562,3.27037 9.01562,3.27037 z"
     id="path113" />
  <g
     inkscape:groupmode="layer"
     id="layer1"
     inkscape:label="Swastika">
    <path
       style="color:#000000;display:inline;overflow:visible;visibility:visible;fill:#ffffff;fill-opacity:1;fill-rule:evenodd;stroke:none;stroke-width:5.59551;stroke-miterlimit:4;stroke-dasharray:none;stroke-opacity:1;marker:none;enable-background:accumulate"
       d="m 200.7419,250.00001 20.39499,20.395 7.31622,7.31621 1.1519,1.15191 20.39499,-20.395 11.92688,11.92688 -20.39498,20.395 8.4681,8.46812 20.39501,-20.395 7.31622,-7.31621 1.15188,-1.15191 -20.39499,-20.395 11.92686,-11.92688 20.39498,20.395 8.46814,-8.46812 -20.39499,-20.395 -7.31621,-7.31621 -1.1519,-1.15187 -20.39501,20.395 -11.92688,-11.92688 20.39501,-20.39504 -8.46813,-8.46808 -20.39499,20.395 -8.4681,8.46808 20.39499,20.395 -11.9269,11.92692 -20.39499,-20.395 z"
       id="rect3103-6"
       inkscape:connector-curvature="0" />
  </g>
</svg>
